<?xml version="1.0" encoding="UTF-8"?>
<svg id="Calque_2" data-name="Calque 2" xmlns="http://www.w3.org/2000/svg" viewBox="0 0 1000 942.55">
  <defs>
    <style>
      .cls-1 {
        stroke-width: 0px;
      }
    </style>
  </defs>
  <path class="cls-1" d="m1000,328.72C1000,147.17,822.82,0,604.26,0S208.51,147.17,208.51,328.72c0,10.88.65,21.63,1.9,32.24C84.62,414.88,0,515.55,0,630.85c0,172.15,188.61,311.7,421.28,311.7s421.28-139.55,421.28-311.7c0-12.78-1.06-25.38-3.09-37.76,97.39-59.88,160.53-155.99,160.53-264.37Zm-374.48,395.97c-51.89,38.4-126.34,60.42-204.24,60.42s-152.35-22.02-204.24-60.42c-22.25-16.47-59.59-50.55-59.59-93.84s37.34-77.37,59.59-93.84c16.06-11.88,34.28-22.19,54.09-30.77,70.39,90.95,193.29,151.2,333.13,151.2,26.76,0,52.88-2.22,78.15-6.42-8.95,33.64-38.22,59.85-56.89,73.67Z"/>
</svg>