<?xml version="1.0" encoding="utf-8"?>
<!-- Generator: Adobe Illustrator 27.8.1, SVG Export Plug-In . SVG Version: 6.00 Build 0)  -->
<svg version="1.1" id="katman_1" xmlns="http://www.w3.org/2000/svg" xmlns:xlink="http://www.w3.org/1999/xlink" x="0px" y="0px"
	 viewBox="0 0 424.5 119.2" style="enable-background:new 0 0 424.5 119.2;" xml:space="preserve">
<style type="text/css">
	.st0{fill:#FFFFFF;}
</style>
<g>
	<path class="st0" d="M71.3,0L0,33l17.8,67.6l13.5-1.7l-3.7-42.5l4.4-2l7.7,43.4L62.8,95l-4.1-46.9l4.4-2l8.4,47.8L94.9,91
		l-4.5-51.4l4.4-2l9.2,52.3l23.1-2.8V13.9L71.3,0z M73,102.6l1.2,6.7l53,8.8V95.9L73,102.6L73,102.6z M177.2,88.7v9.1h11.2
		c0,1.8-0.5,3.7-1.4,5.3c-1,1.6-2.4,2.9-4.1,3.7c-2,0.9-4.2,1.4-6.4,1.3c-2.5,0.1-5.1-0.6-7.2-2c-2.1-1.5-3.7-3.5-4.7-5.9
		c-1.2-3-1.7-6.1-1.6-9.3c-0.1-3.1,0.5-6.3,1.7-9.2c1-2.3,2.6-4.3,4.7-5.8c2.1-1.4,4.6-2.1,7.1-2c1.3,0,2.6,0.2,3.9,0.5
		c1.1,0.3,2.2,0.8,3.1,1.5s1.7,1.5,2.3,2.4c0.6,1,1.1,2.1,1.4,3.2h12.5c-0.3-2.6-1.2-5.2-2.5-7.4c-1.3-2.3-3-4.2-5.1-5.8
		c-2.2-1.7-4.6-3-7.1-3.8c-2.8-0.9-5.7-1.4-8.7-1.4c-3.5,0-6.9,0.6-10.1,1.9c-3.1,1.3-5.9,3.1-8.2,5.5c-2.4,2.5-4.3,5.5-5.5,8.8
		c-1.4,3.8-2.1,7.8-2,11.9c0,5.7,1.1,10.7,3.3,14.9c2.1,4,5.3,7.4,9.2,9.6c8,4.3,17.7,4.5,25.9,0.6c3.5-1.8,6.4-4.5,8.4-7.9
		c2.1-3.5,3.1-7.6,3.1-12.4v-7L177.2,88.7z M332.4,118.1V63.7h37.3v10.1h-25v12.1h20.2V96h-20.2v12.1h25v10.1h-37.3V118.1z
		 M405.9,79.7c-0.1-1.9-1-3.6-2.5-4.8c-1.5-1.1-3.6-1.7-6.3-1.7c-1.5,0-3.1,0.2-4.5,0.7c-1.1,0.4-2.1,1.1-2.8,2
		c-0.6,0.8-1,1.8-1,2.9c0,0.8,0.2,1.6,0.6,2.4c0.4,0.7,1,1.3,1.7,1.8c0.8,0.5,1.7,1,2.6,1.3c1.1,0.4,2.2,0.7,3.4,0.9l4.8,1.1
		c2.3,0.5,4.6,1.3,6.8,2.2c1.9,0.9,3.7,2,5.2,3.4c1.4,1.3,2.5,2.9,3.3,4.6c0.8,1.9,1.2,4,1.2,6c0.1,3.1-0.8,6.2-2.5,8.7
		c-1.8,2.5-4.4,4.5-7.3,5.7c-3.7,1.4-7.6,2.1-11.5,2c-4,0.1-8-0.6-11.7-2c-3.1-1.2-5.8-3.4-7.7-6.1c-1.8-2.7-2.8-6.1-2.9-10.2h11.9
		c0.1,3.2,2.1,6.1,5.1,7.2c1.7,0.6,3.5,0.9,5.2,0.9c1.6,0,3.3-0.2,4.8-0.8c1.2-0.4,2.3-1.2,3.1-2.2c0.7-0.9,1.1-2.1,1.1-3.2
		s-0.4-2.1-1-2.9c-0.8-0.9-1.9-1.6-3-2c-1.6-0.7-3.3-1.2-5-1.5l-5.8-1.4c-4.6-1.1-8.3-2.8-11-5.2c-2.7-2.4-4-5.6-4-9.7
		c-0.1-3.1,0.9-6.2,2.7-8.8c1.9-2.6,4.5-4.6,7.5-5.9c3.4-1.5,7.1-2.2,10.8-2.1c3.7-0.1,7.4,0.7,10.8,2.1c2.9,1.3,5.4,3.3,7.1,5.9
		c1.7,2.6,2.6,5.6,2.6,8.8L405.9,79.7z M323.7,118.1h-12.2V76.7h-1.3l-12.3,41.4h-12.2l-12-41.4h-1.6v41.4h-12.2V63.7h20.7
		l10.5,36.5h1.2l10.5-36.5h20.7v54.4H323.7z M240.9,118.1h13.2l-18.3-54.4h-16.7l-18.3,54.4H214l3.5-12h19.8L240.9,118.1z
		 M220.4,96.7l5.9-19.9h2.3l6,19.9H220.4z M421.4,69.5c-1.1,0-2.2-0.7-2.6-1.8c-0.3-0.7-0.3-1.5,0-2.2c0.2-0.3,0.4-0.6,0.6-0.9
		c0.3-0.3,0.6-0.5,0.9-0.6c0.7-0.3,1.5-0.3,2.2,0c0.3,0.2,0.7,0.4,0.9,0.6c0.3,0.3,0.5,0.6,0.6,0.9c0.3,0.7,0.3,1.5,0,2.2
		c-0.1,0.3-0.3,0.7-0.6,0.9c-0.3,0.3-0.6,0.5-0.9,0.6C422.2,69.4,421.8,69.5,421.4,69.5L421.4,69.5z M421.4,68.7
		c0.4,0,0.8-0.1,1.1-0.3c0.3-0.2,0.6-0.4,0.8-0.7c0.4-0.6,0.4-1.5,0-2.1c-0.2-0.3-0.4-0.5-0.8-0.7c-0.7-0.4-1.5-0.4-2.1,0
		c-0.3,0.2-0.5,0.4-0.7,0.7c-0.4,0.7-0.4,1.5,0,2.1c0.2,0.3,0.4,0.5,0.7,0.7S421.1,68.7,421.4,68.7L421.4,68.7z M420.4,67.8v-2.7
		h1.3c0.2,0,0.3,0,0.5,0.1s0.3,0.2,0.3,0.3c0.1,0.1,0.1,0.3,0.1,0.5s0,0.3-0.1,0.5c-0.1,0.1-0.2,0.2-0.3,0.3
		c-0.2,0.1-0.3,0.1-0.5,0.1h-0.9v-0.5h0.7c0.1,0,0.2,0,0.3-0.1c0.1-0.1,0.1-0.2,0.1-0.3s-0.1-0.2-0.1-0.3c-0.1-0.1-0.2-0.1-0.3-0.1
		h-0.4v2.1L420.4,67.8L420.4,67.8z M422.1,66.6l0.6,1.2h-0.8l-0.5-1.2H422.1z M203.8,0.5h12.3v54.4h-12.3V0.5z M274.6,27.8
		c0,6-1.1,11-3.4,15.2c-2.1,4-5.3,7.3-9.2,9.5c-8.2,4.4-18,4.4-26.2,0c-3.9-2.2-7.1-5.5-9.2-9.5c-2.3-4.2-3.4-9.2-3.4-15.2
		s1.1-11,3.4-15.2c2.1-4,5.3-7.3,9.2-9.5c8.2-4.4,18-4.4,26.2,0c3.9,2.2,7.1,5.5,9.2,9.5C273.4,16.7,274.5,21.8,274.6,27.8
		 M262,27.8c0.1-3.2-0.4-6.4-1.6-9.4c-0.9-2.3-2.5-4.3-4.6-5.8c-4.3-2.7-9.8-2.7-14,0c-2.1,1.4-3.7,3.4-4.6,5.8
		c-2.2,6.1-2.2,12.7,0,18.7c0.9,2.3,2.5,4.4,4.6,5.8c4.3,2.6,9.7,2.6,14,0c2.1-1.4,3.6-3.5,4.6-5.8C261.6,34.2,262.1,31,262,27.8
		 M178,36l6.3,19h13.5l-7-20.5h-9.5l-0.6-1.7c1.8-0.4,4.9-0.9,7.7-2.8c3.9-2.7,6.3-7.1,6.3-11.8c0.1-3.2-0.7-6.4-2.3-9.2
		c-1.6-2.7-4-4.9-6.8-6.2c-3.3-1.5-6.9-2.3-10.6-2.2h-22V55h12.3V36L178,36L178,36z M177.7,24.7c-1.7,0.6-3.5,0.9-5.3,0.9h-7.2V10.5
		h7.1c1.8-0.1,3.6,0.3,5.3,0.9c1.3,0.5,2.4,1.5,3.2,2.7c0.8,1.2,1.1,2.7,1.1,4.1c0.1,1.4-0.3,2.8-1.1,4
		C180.2,23.4,179,24.3,177.7,24.7 M275.7,0.5v10.1h21.1l0.6,1.8c-1.8,0.4-4.8,0.9-7.5,2.7V55h12.2V10.6h14.2V0.5L275.7,0.5z"/>
</g>
</svg>
