<?xml version="1.0" encoding="utf-8"?>
<!-- Generator: Adobe Illustrator 27.8.1, SVG Export Plug-In . SVG Version: 6.00 Build 0)  -->
<svg version="1.1" id="Calque_2_00000014600757250137921790000013270956230839328642_"
	 xmlns="http://www.w3.org/2000/svg" xmlns:xlink="http://www.w3.org/1999/xlink" x="0px" y="0px" viewBox="0 0 1000 928.1"
	 style="enable-background:new 0 0 1000 928.1;" xml:space="preserve">
<style type="text/css">
	.st0{fill-rule:evenodd;clip-rule:evenodd;fill:#FFFFFF;}
</style>
<path class="st0" d="M97.4,556.8c7,7,20.9,16.2,44.1,30.2v83.5L420,832.9v-39.4c83.5,37.1,148.5,60.3,194.9,67.3h2.3l-118.3,67.3
	L97.4,693.7L97.4,556.8L97.4,556.8z M498.8,0l401.4,232v352.7c39.4,27.8,71.9,62.7,99.8,104.4c-7-2.3-20.9-9.3-41.8-18.6
	c25.5,58,30.2,146.2-65,167c-227.4,53.4-524.4-95.1-635.7-169.4c58,23.2,111.4,44.1,162.4,60.3v-37.1
	c-53.4-18.6-146.2-55.7-245.9-123C81.2,505.8,9.3,429.2,0,415.3c16.2,4.6,27.8,7,39.4,7c-34.8-62.6,2.3-129.9,60.3-155.4V232
	L498.8,0z M498.8,48.7L141.5,255.2v167.1c-16.2-13.9-39.4-53.4-44.1-76.6c-16.2,11.6-18.6,34.8-9.3,60.3
	c41.8,106.7,218.1,220.4,329.5,280.7V403.7h-174l-60.3-136.9h631.1L754.1,406h-174v364.3c51,9.3,99.8,16.2,143.9,18.6
	c192.6,9.3,206.5-46.4,174-92.8l-111.4,65c-30.2,2.3-58,2.3-83.5-2.3l153.1-88.2V255.2L498.8,48.7z"/>
</svg>
