<?xml version="1.0" encoding="utf-8"?>
<!-- Generator: Adobe Illustrator 27.8.1, SVG Export Plug-In . SVG Version: 6.00 Build 0)  -->
<svg version="1.1" id="katman_1" xmlns="http://www.w3.org/2000/svg" xmlns:xlink="http://www.w3.org/1999/xlink" x="0px" y="0px"
	 viewBox="0 0 475.2 127.7" style="enable-background:new 0 0 475.2 127.7;" xml:space="preserve">
<style type="text/css">
	.st0{fill:#FFFFFF;}
</style>
<g>
	<path class="st0" d="M17.2,46.2h19.6L40,56.4h14.5L34.4-0.1H20.1L0,56.4h14L17.2,46.2z M24.7,22.5c0.9-2.9,2.3-8,2.3-8h0.2
		c0,0,1.3,5.1,2.2,8l4.2,13.7H20.4L24.7,22.5z"/>
	<path class="st0" d="M98.5,51.2c6.3-4.8,9.7-12.8,9.7-22.8c0-17.2-10.4-28.5-25.9-28.5H58.5v56.5h23C88.5,56.4,94.1,54.6,98.5,51.2
		z M79.2,44.6h-6.9h-6.9l-0.6-1.8c1.8-0.4,4.8-0.9,7.5-2.7V11.6h8.3c8.7,0,13.6,6.6,13.6,16.9s-4.7,16.1-13.8,16.1
		C80.4,44.6,79.2,44.6,79.2,44.6z"/>
	<path class="st0" d="M126,28c0-2.3-0.2-11.4-0.2-11.4h0.2c0,0,2,8.5,2.6,10.6l8,29.1H148l8.1-29.2c0.6-2.1,2.6-10.5,2.6-10.5h0.2
		c0,0-0.2,9-0.2,11.3v28.4h12.7V-0.1h-18.8l-6.9,24.7c-0.9,3.6-3.1,12.9-3.1,12.9h-0.2c0,0-2.2-9.3-3.2-12.9l-7-24.7h-18.6v56.5H126
		V28z"/>
	<rect x="178.9" y="-0.1" class="st0" width="13.8" height="56.5"/>
	<path class="st0" d="M213.9,30.1c0-2-0.2-9.2-0.2-9.2h0.2c0,0,3,6.1,4,7.6l16.4,28h13.9V-0.1h-13.5v26.8c0,2,0.2,8.8,0.2,8.8h-0.2
		c0,0-3-5.6-3.8-7.2L214.3-0.1h-13.9v56.5h13.5L213.9,30.1L213.9,30.1z"/>
	<path class="st0" d="M23.9,70.1H0v56.5h23c7,0,12.7-1.8,17-5.1c6.3-4.8,9.7-12.8,9.7-22.8C49.8,81.4,39.4,70.1,23.9,70.1z
		 M22,114.8h-1.2h-6.9H7L6.4,113c1.8-0.4,4.8-0.9,7.5-2.7V81.8h8.3c8.7,0,13.6,6.6,13.6,16.9C35.8,109,31.1,114.8,22,114.8z"/>
	<path class="st0" d="M67.8,70.1l-20.1,56.5h13.9l3.2-10.2h19.6l3.3,10.2h14.5L82.1,70.1H67.8z M68.1,106.3l4.3-13.6
		c0.9-2.9,2.3-8,2.3-8h0.2c0,0,1.3,5.1,2.2,8l4.2,13.7L68.1,106.3L68.1,106.3z"/>
	<path class="st0" d="M130.4,91.7c-8.4-1.9-12.7-2.8-12.7-6.8c0-3.2,3.2-5.3,8.1-5.3c5.2,0,8.4,2.4,9,6.8h13.5
		c-0.5-11.8-9.9-17.4-22.1-17.4c-12.5,0-22.2,5.3-22.2,17.4c0,11.8,10.2,14.9,19.9,17.1c7.7,1.9,12.2,2.8,12.2,7.3
		c0,4.3-4.5,5.9-9,5.9c-6.6,0-10.3-2.4-10.9-8.1h-13.9c0.3,12.5,10.1,19.1,24.9,19.1c12.9,0,22.9-6.6,22.9-18.4
		C150.2,97.4,140.8,94.2,130.4,91.7z"/>
	<path class="st0" d="M189.3,87c2.7,1.8,5.7,2.3,7.5,2.7l-0.6,1.8h-6.9l0,0h-19.6V70.1h-13.8v56.5h13.8V103h19.6v23.5h13.8V70.1
		h-13.8V87z"/>
	<path class="st0" d="M247.8,96.1v-0.2c4.9-1.9,7.8-5.5,7.8-11.1c0-4.5-1.6-8.1-4.8-10.8c-3-2.4-7.3-3.9-13.1-3.9h-27v56.5h27.6
		c5.9,0,10.5-1.4,13.8-4c3.7-2.8,5.7-7,5.7-12.6C257.9,103.2,253.9,98,247.8,96.1z M224.5,81.1h11.3c4.1,0,6.6,2.1,6.6,5.6
		c0,3.7-2.7,5.7-6.7,5.7h-11.3L224.5,81.1L224.5,81.1z M236.8,115.3h-12.4v-13.4h12.2c4.2,0,7.5,2.3,7.5,6.8
		C244.2,112.7,241.4,115.3,236.8,115.3z"/>
	<path class="st0" d="M289,69c-16.9,0-27.6,12.6-27.6,29.5S272.1,128,289,128c17,0,27.7-12.6,27.7-29.5S305.9,69,289,69z
		 M289.1,116.5c-9,0-13.6-7.8-13.6-18.1s4.6-18.2,13.6-18.2c9.1,0,13.5,7.9,13.5,18.2S298.1,116.5,289.1,116.5z"/>
	<path class="st0" d="M334.7,70.1l-20.1,56.5h13.9l3.2-10.2h19.6l3.3,10.2h14.5l-20.2-56.5H334.7z M335,106.3l4.3-13.7
		c0.9-2.9,2.3-8,2.3-8h0.2c0,0,1.3,5.1,2.2,8l4.2,13.7H335z"/>
	<path class="st0" d="M417.8,110.6c-0.8-5.6-3.3-8.7-8.1-10.3v-0.2c6.5-2.3,9.7-7.1,9.7-13.7c0-10.5-8.4-16.3-19.6-16.3H373v56.5
		h13.8v-16.7c-2.7-1.8-5.7-2.3-7.5-2.7l0.6-1.8h6.9l0,0h8.4c5.9,0,8.6,2.8,9.3,8.1c0.9,5.6,0.6,12.2,2.1,13.1h13.5v-0.7
		C418.2,125.1,418.9,118,417.8,110.6z M397.3,95h-10.4V81.1h10.7c5.3,0,8,2.9,8,7C405.6,92.4,402.7,95,397.3,95z"/>
	<path class="st0" d="M449.3,70.1h-23.9v56.5h23c7,0,12.7-1.8,17-5.1c6.3-4.8,9.7-12.8,9.7-22.8C475.2,81.4,464.8,70.1,449.3,70.1z
		 M447.5,114.8h-1.2h-6.9h-6.9l-0.6-1.8c1.8-0.4,4.8-0.9,7.5-2.7V81.8h8.3c8.7,0,13.6,6.6,13.6,16.9
		C461.2,109,456.5,114.8,447.5,114.8z"/>
</g>
</svg>
