<?xml version="1.0" encoding="utf-8"?>
<!-- Generator: Adobe Illustrator 27.8.1, SVG Export Plug-In . SVG Version: 6.00 Build 0)  -->
<svg version="1.1" id="Calque_1" xmlns="http://www.w3.org/2000/svg" xmlns:xlink="http://www.w3.org/1999/xlink" x="0px" y="0px"
	 viewBox="0 0 536.3 150" style="enable-background:new 0 0 536.3 150;" xml:space="preserve">
<style type="text/css">
	.st0{fill:#FFFFFF;}
</style>
<g>
	<g>
		<path class="st0" d="M130.4,66.8l2.3-5.7l25.7-4.9l4.6,10.6h17.8L150.9,0.2h-15.2L139,8l-26.4,58.9H130.4z M146.3,27.9l6.4,14.9
			l-13.4,2.6h-0.1L146.3,27.9z"/>
		<polygon class="st0" points="65.2,66.8 103.5,66.8 110.6,51.2 82.6,51.2 82.6,41.5 101.9,41.5 108.8,26.3 82.6,26.3 82.6,15.8 
			110.5,15.8 110.5,0.2 0,0.2 7,15.8 28.6,15.8 28.6,79.1 46.1,82.3 46.1,15.8 68.3,15.8 65.2,22.8 		"/>
		<path class="st0" d="M370.9,68.6c7.7,0,13.2-1.3,18.8-4.4l14.8,2.6V35v0v0h-17.1c0,12.8-8.6,17.1-15.9,17.1
			c-9.8,0-16.3-7-16.3-17.8s6.6-17.8,16.3-17.8c5.2-0.2,10.2,2.3,13.2,6.6h18C398.7,9.2,387.6,0,370.9,0
			c-19.6,0-33.4,14.2-33.4,34.3C337.4,54.5,351.3,68.6,370.9,68.6z"/>
		<polygon class="st0" points="275.8,41.5 295.2,41.5 302.1,26.3 275.8,26.3 275.8,15.8 275.8,15.8 303.8,15.8 303.8,0.2 258.5,0.2 
			258.5,66.8 275.8,66.8 		"/>
		<rect x="312.1" y="0.2" class="st0" width="17.4" height="66.6"/>
		<polygon class="st0" points="250.2,66.8 250.2,0.2 240.9,0.2 217.7,28.8 195,0.2 185,0.2 185,66.8 202.2,66.8 202.2,32.9 
			217,50.7 218.3,50.7 233.2,32.9 233.2,66.8 		"/>
		<polygon class="st0" points="453.4,24.1 430.9,28.4 430.9,0.2 413.5,0.2 413.5,66.8 430.9,66.8 430.9,43.7 453.4,39.4 453.4,66.8 
			470.9,66.8 470.9,23.6 467.7,15.8 490.2,15.8 490.2,82.3 507.6,79.2 507.6,15.8 529.3,15.8 536.3,0.2 453.4,0.2 		"/>
	</g>
	<g>
		<polygon class="st0" points="105.1,82.3 105.1,97.9 125,97.9 125,149 142.5,149 142.5,97.9 159.2,97.9 166.2,82.3 		"/>
		<polygon class="st0" points="336.1,133.3 336.1,82.3 318.6,82.3 318.6,133.3 318.7,149 361.8,149 354.8,133.3 		"/>
		<path class="st0" d="M285.5,148.8c0.3-0.1,0.6-0.1,0.8-0.2c0,0,0,0,0,0c5.3-1.5,9.7-4.1,13.1-7.5c6.3-6.1,10-14.9,10-25.3
			c0-20.1-13.9-34.2-33.5-34.3c-0.2,0-0.4,0-0.6,0c-0.2,0-0.3,0-0.5,0c-3.3,0-6.4,0.4-9.4,1.2c-5.9,1.5-10.8,4.3-14.5,8.2
			c-6.1,6.1-9.7,14.8-9.7,25c0,20.1,13.9,34.2,33.5,34.3c0.2,0,0.4,0,0.6,0c0.2,0,0.3,0,0.5,0C279.3,150,282.5,149.6,285.5,148.8z
			 M270.5,132.8c-0.1,0-0.1,0-0.2-0.1c-6.9-2.1-11.2-8.3-11.2-17.1c0-10.7,6.6-17.8,16.4-17.8c1.3,0,2.6,0.1,3.8,0.4
			c7.5,1.7,12.3,8.2,12.3,17.3c0,10.8-6.6,17.8-16.4,17.8c-1.4,0-2.7-0.1-3.9-0.4C271,133,270.8,132.9,270.5,132.8z"/>
		<path class="st0" d="M395.6,107.9L395.6,107.9c-7.5-1.9-11.4-3.4-11.4-6.7c0-2.6,1.8-5.7,10-5.7S405,98.8,405,103h16.8
			c0-11.3-6.1-21.8-27.5-21.8s-28,10.5-28,20.3c0,12.3,8.3,16.6,26.4,21.5c7.6,2,12.9,3.5,12.9,6.7c0,3.5-4.7,5.9-11.4,5.9
			c-8.7,0-12.9-3.8-12.9-10.4h-16.9c0,13.7,8.5,24.8,29.8,24.8s29.7-8.9,29.7-21.3S415,112.8,395.6,107.9z"/>
		<polygon class="st0" points="429.8,82.3 428.4,85.7 427.1,82.3 425.8,82.3 425.8,87.1 426.7,87.1 426.7,83.4 428.1,87.1 
			428.7,87.1 430.2,83.4 430.2,87.1 431.2,87.1 431.2,82.3 429.8,82.3 		"/>
		<path class="st0" d="M199.9,81.4c-0.2,0-0.4,0-0.6,0c-0.2,0-0.3,0-0.5,0c-3.3,0-6.4,0.4-9.4,1.2c-5.9,1.5-10.8,4.3-14.5,8.2
			c-6.1,6.1-9.7,14.8-9.7,25c0,20.1,13.9,34.2,33.5,34.3c0.2,0,0.4,0,0.6,0c0.2,0,0.3,0,0.5,0c3.4,0,6.6-0.4,9.5-1.2
			c0.3-0.1,0.6-0.1,0.8-0.2c0,0,0,0,0,0c5.3-1.5,9.7-4.1,13.1-7.5c6.3-6.1,10-14.9,10-25.3C233.4,95.6,219.5,81.5,199.9,81.4z
			 M199.2,133.5c-1.4,0-2.7-0.1-3.9-0.4c-0.3-0.1-0.6-0.1-0.8-0.2c-0.1,0-0.1,0-0.2-0.1c-6.9-2.1-11.2-8.3-11.2-17.1
			c0-10.7,6.6-17.8,16.4-17.8c1.3,0,2.6,0.1,3.8,0.4c7.5,1.7,12.3,8.2,12.3,17.3C215.6,126.4,209.1,133.5,199.2,133.5z"/>
		<polygon class="st0" points="420.9,83.1 422.4,83.1 422.4,87.1 423.3,87.1 423.3,83.1 424.8,83.1 424.8,82.3 420.9,82.3 		"/>
	</g>
</g>
</svg>
